<svg xmlns="http://www.w3.org/2000/svg" viewBox="0 0 32 32" width="32" height="32">
  <circle cx="16" cy="16" r="16" fill="#2775CA"/>
  <path d="M20.4 18.4c0-2-1.2-2.7-3.6-3-.17-.022-1.5-.25-1.7-.3-1.1-.2-1.5-.6-1.5-1.2s.6-1.1 1.7-1.1c1 0 1.5.4 1.7 1.1.05.15.2.25.35.25h.85c.2 0 .35-.15.35-.35v-.05c-.2-1.15-1.1-2-2.3-2.2V10.2c0-.2-.15-.35-.35-.35h-.8c-.2 0-.35.15-.35.35v1.3c-1.6.2-2.7 1.25-2.7 2.6 0 1.9 1.15 2.6 3.55 2.95.17.022 1.55.2 1.75.25 1.2.3 1.55.7 1.55 1.35 0 .8-.7 1.35-1.85 1.35-1.4 0-1.95-.6-2.1-1.2-.05-.15-.2-.3-.4-.3h-.85c-.2 0-.35.15-.35.35v.05c.25 1.3 1.1 2.15 2.7 2.4v1.35c0 .2.15.35.35.35h.8c.2 0 .35-.15.35-.35V21.3c1.65-.25 2.75-1.35 2.75-2.9z" fill="#fff"/>
  <path d="M13.1 24.35c-4.6-1.65-7-6.75-5.3-11.3.85-2.35 2.75-4.15 5.1-5.05.2-.1.3-.25.3-.45v-.75c0-.2-.15-.35-.35-.35-.05 0-.1 0-.15.05C7.95 8.35 5.3 13.6 7.2 18.35c1.1 2.8 3.3 4.95 6.1 6.05.2.1.4 0 .45-.2.05-.05.05-.1.05-.15v-.75c0-.15-.15-.35-.35-.45h-.35zm6.15-17.9c-.2-.1-.4 0-.45.2-.05.05-.05.1-.05.15v.75c0 .2.15.35.35.45 4.6 1.65 7 6.75 5.3 11.3-.85 2.35-2.75 4.15-5.1 5.05-.2.1-.3.25-.3.45v.75c0 .2.15.35.35.35.05 0 .1 0 .15-.05 4.75-1.85 7.4-7.1 5.5-11.85-1.1-2.85-3.35-5-6.1-6.1h.35z" fill="#fff"/>
</svg>
