<svg xmlns="http://www.w3.org/2000/svg" viewBox="0 0 64 64">
  <circle cx="32" cy="32" r="32" fill="#F7931A"/>
  <path d="M46.1 27.4c.6-4.2-2.6-6.5-7-8l1.4-5.7-3.5-.9-1.4 5.5c-.9-.2-1.9-.4-2.8-.7l1.4-5.5-3.5-.9-1.4 5.7c-.8-.2-1.5-.3-2.2-.5l0 0-4.8-1.2-.9 3.7s2.6.6 2.5.6c1.4.4 1.7 1.3 1.6 2l-1.6 6.5c.1 0 .2.1.3.1-.1 0-.2-.1-.3-.1l-2.3 9.1c-.2.4-.6 1.1-1.6.8.04.05-2.5-.6-2.5-.6l-1.7 4 4.5 1.1c.8.2 1.7.4 2.5.7l-1.4 5.8 3.5.9 1.4-5.7c1 .3 1.9.5 2.8.7l-1.4 5.7 3.5.9 1.4-5.8c6 1.1 10.5.7 12.4-4.7 1.5-4.4-.1-6.9-3.2-8.5 2.3-.5 4-2.1 4.4-5.2zM38.7 38.4c-1.1 4.4-8.5 2-10.9 1.4l1.9-7.8c2.4.6 10.1 1.8 9 6.4zM39.8 27.3c-1 4-7.2 2-9.2 1.5l1.8-7.1c2 .5 8.5 1.4 7.4 5.6z" fill="#FFF"/>
</svg>
